<?xml version="1.0" encoding="UTF-8" standalone="no"?>
<!-- Created with Inkscape (http://www.inkscape.org/) -->

<svg
   xmlns:dc="http://purl.org/dc/elements/1.1/"
   xmlns:cc="http://creativecommons.org/ns#"
   xmlns:rdf="http://www.w3.org/1999/02/22-rdf-syntax-ns#"
   xmlns:svg="http://www.w3.org/2000/svg"
   xmlns="http://www.w3.org/2000/svg"
   xmlns:sodipodi="http://sodipodi.sourceforge.net/DTD/sodipodi-0.dtd"
   xmlns:inkscape="http://www.inkscape.org/namespaces/inkscape"
   width="473.07101"
   height="288.20258"
   id="svg2"
   version="1.1"
   inkscape:version="0.48.3.1 r9886"
   sodipodi:docname="LineSegment_bounds.svg">
  <defs
     id="defs4">
    <marker
       inkscape:stockid="DotM"
       orient="auto"
       refY="0"
       refX="0"
       id="DotM"
       style="overflow:visible">
      <path
         id="path3827"
         d="m -2.5,-1 c 0,2.76 -2.24,5 -5,5 -2.76,0 -5,-2.24 -5,-5 0,-2.76 2.24,-5 5,-5 2.76,0 5,2.24 5,5 z"
         style="fill-rule:evenodd;stroke:#000000;stroke-width:1pt"
         transform="matrix(0.4,0,0,0.4,2.96,0.4)"
         inkscape:connector-curvature="0" />
    </marker>
    <marker
       inkscape:stockid="TriangleOutL"
       orient="auto"
       refY="0"
       refX="0"
       id="TriangleOutL"
       style="overflow:visible">
      <path
         id="path3905"
         d="m 5.77,0 -8.65,5 0,-10 8.65,5 z"
         style="fill-rule:evenodd;stroke:#000000;stroke-width:1pt"
         transform="scale(0.8,0.8)"
         inkscape:connector-curvature="0" />
    </marker>
    <marker
       inkscape:stockid="DiamondL"
       orient="auto"
       refY="0"
       refX="0"
       id="DiamondL"
       style="overflow:visible">
      <path
         id="path3842"
         d="M 0,-7.0710768 -7.0710894,0 0,7.0710589 7.0710462,0 0,-7.0710768 z"
         style="fill-rule:evenodd;stroke:#000000;stroke-width:1pt"
         transform="scale(0.8,0.8)"
         inkscape:connector-curvature="0" />
    </marker>
    <marker
       inkscape:stockid="DotL"
       orient="auto"
       refY="0"
       refX="0"
       id="DotL"
       style="overflow:visible">
      <path
         id="path3824"
         d="m -2.5,-1 c 0,2.76 -2.24,5 -5,5 -2.76,0 -5,-2.24 -5,-5 0,-2.76 2.24,-5 5,-5 2.76,0 5,2.24 5,5 z"
         style="fill-rule:evenodd;stroke:#000000;stroke-width:1pt"
         transform="matrix(0.8,0,0,0.8,5.92,0.8)"
         inkscape:connector-curvature="0" />
    </marker>
    <marker
       inkscape:stockid="DiamondL"
       orient="auto"
       refY="0"
       refX="0"
       id="DiamondL-9"
       style="overflow:visible">
      <path
         inkscape:connector-curvature="0"
         id="path3842-9"
         d="M 0,-7.0710768 -7.0710894,0 0,7.0710589 7.0710462,0 0,-7.0710768 z"
         style="fill-rule:evenodd;stroke:#000000;stroke-width:1pt"
         transform="scale(0.8,0.8)" />
    </marker>
  </defs>
  <sodipodi:namedview
     id="base"
     pagecolor="#ffffff"
     bordercolor="#666666"
     borderopacity="1.0"
     inkscape:pageopacity="1"
     inkscape:pageshadow="2"
     inkscape:zoom="1.979899"
     inkscape:cx="154.26059"
     inkscape:cy="147.5433"
     inkscape:document-units="px"
     inkscape:current-layer="layer1"
     showgrid="false"
     inkscape:snap-nodes="true"
     inkscape:window-width="1920"
     inkscape:window-height="1052"
     inkscape:window-x="1920"
     inkscape:window-y="0"
     inkscape:window-maximized="1"
     fit-margin-top="0"
     fit-margin-left="0"
     fit-margin-right="0"
     fit-margin-bottom="0" />
  <metadata
     id="metadata7">
    <rdf:RDF>
      <cc:Work
         rdf:about="">
        <dc:format>image/svg+xml</dc:format>
        <dc:type
           rdf:resource="http://purl.org/dc/dcmitype/StillImage" />
        <dc:title></dc:title>
      </cc:Work>
    </rdf:RDF>
  </metadata>
  <g
     inkscape:groupmode="layer"
     id="layer2"
     inkscape:label="bg"
     style="display:inline">
    <rect
       style="fill:#ffffff;fill-opacity:1;stroke:none"
       id="rect7936"
       width="590.71429"
       height="342.14285"
       x="-24.740038"
       y="-28.623388" />
  </g>
  <g
     inkscape:label="Layer 1"
     inkscape:groupmode="layer"
     id="layer1"
     transform="translate(-34.706752,-39.486662)"
     style="display:inline">
    <path
       style="fill:none;stroke:#0030ff;stroke-width:1.01464963;stroke-linecap:butt;stroke-linejoin:miter;stroke-miterlimit:4;stroke-opacity:1;stroke-dasharray:4.05859837, 2.02929919;stroke-dashoffset:0;marker-start:url(#DiamondL);marker-end:url(#DotM)"
       d="M 254.38817,95.717909 201.44578,159.64083"
       id="path2987"
       inkscape:connector-curvature="0" />
    <path
       style="fill:none;stroke:#0030ff;stroke-width:0;stroke-linecap:butt;stroke-linejoin:miter;stroke-miterlimit:4;stroke-opacity:1;stroke-dasharray:none;stroke-dashoffset:0;marker-start:url(#DiamondL-9)"
       d="M 507.77778,193.01664 334.82016,254.68487"
       id="path2989"
       inkscape:connector-curvature="0" />
    <path
       style="fill:none;stroke:#000000;stroke-width:1px;stroke-linecap:butt;stroke-linejoin:miter;stroke-opacity:1;marker-start:url(#DotL);marker-end:url(#DotL)"
       d="M 334.28571,255.21932 157.14286,126.6479"
       id="path5491"
       inkscape:connector-curvature="0" />
    <path
       style="fill:none;stroke:#ed1c1c;stroke-width:0.99404347;stroke-linecap:butt;stroke-linejoin:miter;stroke-miterlimit:4;stroke-opacity:1;stroke-dasharray:0.99404347, 0.99404347;stroke-dashoffset:0"
       d="M 63.359242,54.502062 156.93662,126.65088"
       id="path5861"
       inkscape:connector-curvature="0" />
    <path
       style="fill:none;stroke:#0030ff;stroke-width:1.11233664;stroke-linecap:butt;stroke-linejoin:miter;stroke-miterlimit:4;stroke-opacity:1;stroke-dasharray:4.44934679, 2.2246734;stroke-dashoffset:0;marker-start:url(#DiamondL);marker-end:url(#DotM)"
       d="m 66.093494,171.0464 58.612626,-69.392"
       id="path2987-8"
       inkscape:connector-curvature="0" />
    <g
       style="font-size:12px;font-style:normal;font-weight:normal;line-height:125%;letter-spacing:0px;word-spacing:0px;fill:#000000;fill-opacity:1;stroke:none;font-family:Sans"
       id="flowRoot6459">
      <path
         d="m 155.68359,106.99419 7.40039,0 0,0.9961 -3.10546,0 0,7.75195 -1.18946,0 0,-7.75195 -3.10547,0 0,-0.9961"
         id="path7749"
         inkscape:connector-curvature="0" />
      <path
         d="m 164.54297,114.74615 1.93359,0 0,-6.67383 -2.10351,0.42187 0,-1.07812 2.09179,-0.42188 1.1836,0 0,7.75196 1.93359,0 0,0.99609 -5.03906,0 0,-0.99609"
         id="path7751"
         inkscape:connector-curvature="0" />
    </g>
    <g
       style="font-size:12px;font-style:normal;font-weight:normal;line-height:125%;letter-spacing:0px;word-spacing:0px;fill:#000000;fill-opacity:1;stroke:none;font-family:Sans"
       id="flowRoot6467">
      <path
         d="m 329.24609,233.43169 7.40039,0 0,0.9961 -3.10546,0 0,7.75195 -1.18946,0 0,-7.75195 -3.10547,0 0,-0.9961"
         id="path7690"
         inkscape:connector-curvature="0" />
      <path
         d="m 338.91992,241.18365 4.13086,0 0,0.99609 -5.55469,0 0,-0.99609 c 0.44922,-0.46485 1.06055,-1.08789 1.83399,-1.86914 0.77734,-0.78516 1.26562,-1.29102 1.46484,-1.51758 0.3789,-0.42578 0.64258,-0.78515 0.79102,-1.07813 0.15234,-0.29687 0.22851,-0.58788 0.22851,-0.87304 0,-0.46484 -0.16406,-0.84375 -0.49218,-1.13672 -0.32423,-0.29296 -0.74806,-0.43945 -1.27149,-0.43946 -0.3711,1e-5 -0.76367,0.0645 -1.17773,0.19336 -0.41016,0.12892 -0.84961,0.32423 -1.31836,0.58594 l 0,-1.19531 c 0.47656,-0.1914 0.92187,-0.33593 1.33593,-0.4336 0.41406,-0.0976 0.79297,-0.14647 1.13672,-0.14648 0.90625,1e-5 1.6289,0.22657 2.16797,0.67969 0.53906,0.45313 0.80859,1.0586 0.8086,1.8164 -1e-5,0.35938 -0.0684,0.70118 -0.20508,1.02539 -0.13282,0.32032 -0.37696,0.69923 -0.73242,1.13672 -0.0977,0.11329 -0.40821,0.44141 -0.93164,0.98438 -0.52345,0.53906 -1.26173,1.29492 -2.21485,2.26758"
         id="path7692"
         inkscape:connector-curvature="0" />
    </g>
    <g
       transform="translate(2.1428571,13.571429)"
       id="flowRoot6475">
      <path
         d="m 261.04492,63.078177 c 0.2539,0.08594 0.5,0.269536 0.73828,0.550782 0.24218,0.281253 0.48437,0.667971 0.72657,1.160156 l 1.20117,2.390625 -1.27149,0 -1.11914,-2.244141 c -0.28907,-0.585934 -0.57032,-0.974606 -0.84375,-1.166015 -0.26953,-0.191403 -0.63867,-0.287106 -1.10742,-0.28711 l -1.28906,0 0,3.697266 -1.1836,0 0,-8.748047 2.67188,0 c 0.99999,9e-6 1.74609,0.208993 2.23828,0.626953 0.49218,0.417977 0.73828,1.048835 0.73828,1.892578 0,0.550787 -0.12891,1.007818 -0.38672,1.371094 -0.25391,0.363286 -0.625,0.615239 -1.11328,0.755859 m -2.96484,-3.673828 0,3.105469 1.48828,0 c 0.57031,5e-6 0.99999,-0.130855 1.28906,-0.392578 0.29297,-0.26562 0.43945,-0.654291 0.43945,-1.166016 0,-0.511712 -0.14648,-0.896477 -0.43945,-1.154297 -0.28907,-0.261711 -0.71875,-0.39257 -1.28906,-0.392578 l -1.48828,0"
         id="path7704"
         inkscape:connector-curvature="0" />
      <path
         d="m 266.42383,63.002006 0,3.205078 1.89844,0 c 0.63671,1e-6 1.10741,-0.130859 1.4121,-0.392578 0.30859,-0.265624 0.46289,-0.66992 0.4629,-1.212891 -10e-6,-0.546872 -0.15431,-0.949215 -0.4629,-1.207031 -0.30469,-0.261715 -0.77539,-0.392574 -1.4121,-0.392578 l -1.89844,0 m 0,-3.597657 0,2.636719 1.75195,0 c 0.57812,5e-6 1.00781,-0.107417 1.28906,-0.322266 0.28515,-0.218744 0.42773,-0.550775 0.42774,-0.996093 -1e-5,-0.4414 -0.14259,-0.771477 -0.42774,-0.990235 -0.28125,-0.218742 -0.71094,-0.328117 -1.28906,-0.328125 l -1.75195,0 m -1.1836,-0.972656 3.02344,0 c 0.90234,9e-6 1.59765,0.187509 2.08594,0.5625 0.48827,0.375008 0.73241,0.90821 0.73242,1.599609 -10e-6,0.535163 -0.12501,0.960944 -0.375,1.277344 -0.25001,0.316411 -0.61719,0.513677 -1.10156,0.591797 0.58202,0.125005 1.0332,0.386723 1.35351,0.785156 0.32422,0.394535 0.48633,0.888675 0.48633,1.482422 0,0.781252 -0.26563,1.384767 -0.79687,1.810547 -0.53126,0.425782 -1.28712,0.638672 -2.26758,0.638672 l -3.14063,0 0,-8.748047"
         id="path7706"
         inkscape:connector-curvature="0" />
      <path
         d="m 273.25646,68.93227 1.25685,0 0,-4.338049 -1.3673,0.274222 0,-0.700791 1.35969,-0.274223 0.76934,0 0,5.038841 1.25686,0 0,0.64747 -3.27544,0 0,-0.64747"
         style="font-size:65.00091553%;baseline-shift:sub"
         id="path7708"
         inkscape:connector-curvature="0" />
    </g>
    <g
       transform="translate(-16.428571,28.571429)"
       style="font-size:12px;font-style:normal;font-weight:normal;line-height:125%;letter-spacing:0px;word-spacing:0px;fill:#000000;fill-opacity:1;stroke:none;font-family:Sans"
       id="flowRoot6485">
      <path
         d="m 443.88867,217.35943 c 0.2539,0.0859 0.5,0.26953 0.73828,0.55078 0.24218,0.28125 0.48437,0.66797 0.72657,1.16015 l 1.20117,2.39063 -1.27149,0 -1.11914,-2.24414 c -0.28907,-0.58594 -0.57032,-0.97461 -0.84375,-1.16602 -0.26953,-0.1914 -0.63867,-0.2871 -1.10742,-0.28711 l -1.28906,0 0,3.69727 -1.1836,0 0,-8.74805 2.67188,0 c 0.99999,1e-5 1.74609,0.209 2.23828,0.62696 0.49218,0.41797 0.73828,1.04883 0.73828,1.89257 0,0.55079 -0.12891,1.00782 -0.38672,1.3711 -0.25391,0.36328 -0.625,0.61524 -1.11328,0.75586 m -2.96484,-3.67383 0,3.10547 1.48828,0 c 0.57031,0 0.99999,-0.13086 1.28906,-0.39258 0.29297,-0.26562 0.43945,-0.65429 0.43945,-1.16602 0,-0.51171 -0.14648,-0.89647 -0.43945,-1.15429 -0.28907,-0.26171 -0.71875,-0.39257 -1.28906,-0.39258 l -1.48828,0"
         id="path7668"
         inkscape:connector-curvature="0" />
      <path
         d="m 449.26758,217.28326 0,3.20507 1.89844,0 c 0.63671,0 1.10741,-0.13085 1.4121,-0.39257 0.30859,-0.26563 0.46289,-0.66992 0.4629,-1.2129 -10e-6,-0.54687 -0.15431,-0.94921 -0.4629,-1.20703 -0.30469,-0.26171 -0.77539,-0.39257 -1.4121,-0.39257 l -1.89844,0 m 0,-3.59766 0,2.63672 1.75195,0 c 0.57812,0 1.00781,-0.10742 1.28906,-0.32227 0.28515,-0.21874 0.42773,-0.55077 0.42774,-0.99609 -1e-5,-0.4414 -0.14259,-0.77148 -0.42774,-0.99024 -0.28125,-0.21874 -0.71094,-0.32811 -1.28906,-0.32812 l -1.75195,0 m -1.1836,-0.97266 3.02344,0 c 0.90234,1e-5 1.59765,0.18751 2.08594,0.5625 0.48827,0.37501 0.73241,0.90821 0.73242,1.59961 -10e-6,0.53516 -0.12501,0.96095 -0.375,1.27735 -0.25001,0.31641 -0.61719,0.51367 -1.10156,0.59179 0.58202,0.12501 1.0332,0.38673 1.35351,0.78516 0.32422,0.39453 0.48633,0.88867 0.48633,1.48242 0,0.78125 -0.26563,1.38477 -0.79687,1.81055 -0.53126,0.42578 -1.28712,0.63867 -2.26758,0.63867 l -3.14063,0 0,-8.74805"
         id="path7670"
         inkscape:connector-curvature="0" />
      <path
         d="m 456.62961,223.21352 2.6851,0 0,0.64747 -3.6106,0 0,-0.64747 c 0.292,-0.30215 0.68936,-0.70714 1.19211,-1.21496 0.50527,-0.51035 0.82266,-0.83917 0.95216,-0.98644 0.24629,-0.27676 0.41768,-0.51035 0.51417,-0.70079 0.099,-0.19297 0.14853,-0.38213 0.14853,-0.56749 0,-0.30215 -0.10664,-0.54844 -0.31992,-0.73888 -0.21075,-0.19042 -0.48624,-0.28564 -0.82648,-0.28564 -0.24122,0 -0.4964,0.0419 -0.76554,0.12568 -0.2666,0.0838 -0.55225,0.21075 -0.85694,0.38087 l 0,-0.77697 c 0.30977,-0.12441 0.59922,-0.21835 0.86837,-0.28184 0.26914,-0.0635 0.51543,-0.0952 0.73888,-0.0952 0.58906,0 1.0588,0.14727 1.40919,0.4418 0.3504,0.29454 0.52559,0.6881 0.5256,1.18068 -1e-5,0.2336 -0.0444,0.45577 -0.1333,0.66651 -0.0863,0.20821 -0.24503,0.4545 -0.47609,0.73888 -0.0635,0.0736 -0.26533,0.28692 -0.60557,0.63985 -0.34024,0.3504 -0.82013,0.84172 -1.43967,1.47395"
         style="font-size:65.00091553%;baseline-shift:sub"
         id="path7672"
         inkscape:connector-curvature="0" />
    </g>
    <g
       style="font-size:12px;font-style:normal;font-weight:normal;line-height:125%;letter-spacing:0px;word-spacing:0px;fill:#000000;fill-opacity:1;stroke:none;font-family:Sans"
       id="flowRoot6495"
       transform="translate(2.5253811,-1.5152337)">
      <path
         d="m 63.169922,188.07818 c 0.253901,0.0859 0.499994,0.26953 0.738281,0.55078 0.242181,0.28125 0.484369,0.66797 0.726563,1.16015 l 1.201171,2.39063 -1.271484,0 -1.119141,-2.24414 c -0.289067,-0.58594 -0.570317,-0.97461 -0.84375,-1.16602 -0.269535,-0.1914 -0.638675,-0.2871 -1.107421,-0.28711 l -1.289063,0 0,3.69727 -1.183594,0 0,-8.74805 2.671875,0 c 0.999996,1e-5 1.746089,0.209 2.238282,0.62696 0.492181,0.41797 0.738274,1.04883 0.738281,1.89257 -7e-6,0.55079 -0.128913,1.00782 -0.386719,1.3711 -0.253912,0.36328 -0.625006,0.61524 -1.113281,0.75586 m -2.964844,-3.67383 0,3.10547 1.488281,0 c 0.570308,0 0.999996,-0.13086 1.289063,-0.39258 0.292963,-0.26562 0.439447,-0.65429 0.439453,-1.16602 -6e-6,-0.51171 -0.14649,-0.89647 -0.439453,-1.15429 -0.289067,-0.26171 -0.718755,-0.39257 -1.289063,-0.39258 l -1.488281,0"
         id="path7807"
         inkscape:connector-curvature="0" />
      <path
         d="m 68.548828,188.00201 0,3.20507 1.898438,0 c 0.636713,0 1.107416,-0.13085 1.412109,-0.39257 0.308588,-0.26563 0.462884,-0.66992 0.462891,-1.2129 -7e-6,-0.54687 -0.154303,-0.94921 -0.462891,-1.20703 -0.304693,-0.26171 -0.775396,-0.39257 -1.412109,-0.39257 l -1.898438,0 m 0,-3.59766 0,2.63672 1.751953,0 c 0.578121,0 1.007808,-0.10742 1.289063,-0.32227 0.28515,-0.21874 0.427728,-0.55077 0.427734,-0.99609 -6e-6,-0.4414 -0.142584,-0.77148 -0.427734,-0.99024 -0.281255,-0.21874 -0.710942,-0.32811 -1.289063,-0.32812 l -1.751953,0 m -1.183594,-0.97266 3.023438,0 c 0.902339,1e-5 1.59765,0.18751 2.085937,0.5625 0.488275,0.37501 0.732415,0.90821 0.732422,1.59961 -7e-6,0.53516 -0.125007,0.96095 -0.375,1.27735 -0.250006,0.31641 -0.617193,0.51367 -1.101562,0.59179 0.582025,0.12501 1.033196,0.38673 1.353515,0.78516 0.324212,0.39453 0.486321,0.88867 0.486328,1.48242 -7e-6,0.78125 -0.265632,1.38477 -0.796875,1.81055 -0.531256,0.42578 -1.287114,0.63867 -2.267578,0.63867 l -3.140625,0 0,-8.74805"
         id="path7809"
         inkscape:connector-curvature="0" />
      <path
         d="m 77.579048,191.51378 c 0.368166,0.0787 0.655084,0.24249 0.860755,0.49131 0.208202,0.24884 0.312305,0.55607 0.312309,0.9217 -4e-6,0.56114 -0.192976,0.99532 -0.578915,1.30255 -0.385946,0.30724 -0.934391,0.46085 -1.645335,0.46085 -0.238677,0 -0.48497,-0.0241 -0.738878,-0.0724 -0.251372,-0.0457 -0.511629,-0.11553 -0.780773,-0.20948 l 0,-0.74269 c 0.213284,0.12442 0.446881,0.21837 0.700792,0.28184 0.253908,0.0635 0.519243,0.0952 0.796007,0.0952 0.482426,0 0.849325,-0.0952 1.100699,-0.28565 0.253906,-0.19043 0.380861,-0.46719 0.380865,-0.83028 -4e-6,-0.33516 -0.118072,-0.59669 -0.354204,-0.78458 -0.2336,-0.19043 -0.559874,-0.28565 -0.978823,-0.28565 l -0.662704,0 0,-0.63224 0.693173,0 c 0.378323,1e-5 0.66778,-0.0749 0.868372,-0.22471 0.200585,-0.15234 0.30088,-0.3707 0.300883,-0.65509 -3e-6,-0.29199 -0.104106,-0.51543 -0.312309,-0.67032 -0.20567,-0.15742 -0.501475,-0.23613 -0.887415,-0.23613 -0.210747,0 -0.436727,0.0228 -0.677939,0.0685 -0.241216,0.0457 -0.506551,0.11681 -0.796007,0.21329 l 0,-0.68556 c 0.291995,-0.0812 0.564948,-0.14218 0.818859,-0.18282 0.256447,-0.0406 0.497661,-0.0609 0.723643,-0.0609 0.58399,0 1.046105,0.1333 1.386347,0.3999 0.340236,0.26408 0.510355,0.62209 0.510359,1.07404 -4e-6,0.31485 -0.09014,0.58146 -0.270414,0.79982 -0.180279,0.21583 -0.436728,0.36563 -0.769347,0.44942"
         style="font-size:65.00091553%;baseline-shift:sub"
         id="path7811"
         inkscape:connector-curvature="0" />
    </g>
    <g
       transform="translate(-115,-34.285714)"
       style="font-size:12px;font-style:normal;font-weight:normal;line-height:125%;letter-spacing:0px;word-spacing:0px;fill:#000000;fill-opacity:1;stroke:none;font-family:Sans"
       id="flowRoot6510">
      <path
         d="m 319.42969,275.37505 0,3.96094 -1.07813,0 0,-3.92578 c 0,-0.62109 -0.1211,-1.08593 -0.36328,-1.39453 -0.24219,-0.30859 -0.60547,-0.46289 -1.08984,-0.46289 -0.58204,0 -1.04102,0.18555 -1.37696,0.55664 -0.33594,0.3711 -0.5039,0.87695 -0.5039,1.51758 l 0,3.70898 -1.08399,0 0,-9.11719 1.08399,0 0,3.57422 c 0.25781,-0.39452 0.56054,-0.68945 0.9082,-0.88476 0.35156,-0.19531 0.75586,-0.29297 1.21289,-0.29297 0.7539,0 1.32422,0.23438 1.71094,0.70312 0.38671,0.46485 0.58007,1.1504 0.58008,2.05664"
         id="path7711"
         inkscape:connector-curvature="0" />
      <path
         d="m 321.5918,272.77349 1.07812,0 0,6.5625 -1.07812,0 0,-6.5625 m 0,-2.55469 1.07812,0 0,1.36524 -1.07812,0 0,-1.36524"
         id="path7713"
         inkscape:connector-curvature="0" />
      <path
         d="m 329.23828,275.97857 c 0,-0.78125 -0.16211,-1.38672 -0.48633,-1.81641 -0.32031,-0.42968 -0.77149,-0.64452 -1.35351,-0.64453 -0.57813,10e-6 -1.0293,0.21485 -1.35352,0.64453 -0.32031,0.42969 -0.48047,1.03516 -0.48047,1.81641 0,0.77734 0.16016,1.38086 0.48047,1.81054 0.32422,0.42969 0.77539,0.64454 1.35352,0.64454 0.58202,0 1.0332,-0.21485 1.35351,-0.64454 0.32422,-0.42968 0.48633,-1.0332 0.48633,-1.81054 m 1.07813,2.54297 c -1e-5,1.11718 -0.24806,1.94726 -0.74414,2.49023 -0.4961,0.54687 -1.25587,0.82031 -2.2793,0.82031 -0.37891,0 -0.73633,-0.0293 -1.07227,-0.0879 -0.33594,-0.0547 -0.66211,-0.14062 -0.97851,-0.25781 l 0,-1.04883 c 0.3164,0.17188 0.6289,0.29883 0.9375,0.38086 0.30859,0.082 0.62304,0.12305 0.94336,0.12305 0.70702,0 1.23632,-0.18555 1.58789,-0.55664 0.35155,-0.36719 0.52734,-0.92383 0.52734,-1.66992 l 0,-0.53321 c -0.22266,0.38672 -0.50782,0.67578 -0.85547,0.86719 -0.34766,0.19141 -0.76367,0.28711 -1.24804,0.28711 -0.80469,0 -1.45313,-0.30664 -1.94532,-0.91992 -0.49219,-0.61328 -0.73828,-1.42578 -0.73828,-2.4375 0,-1.01562 0.24609,-1.83007 0.73828,-2.44336 0.49219,-0.61328 1.14063,-0.91992 1.94532,-0.91992 0.48437,0 0.90038,0.0957 1.24804,0.28711 0.34765,0.19141 0.63281,0.48047 0.85547,0.86718 l 0,-0.99609 1.07813,0 0,5.74805"
         id="path7715"
         inkscape:connector-curvature="0" />
      <path
         d="m 337.99219,275.37505 0,3.96094 -1.07813,0 0,-3.92578 c 0,-0.62109 -0.1211,-1.08593 -0.36328,-1.39453 -0.24219,-0.30859 -0.60547,-0.46289 -1.08984,-0.46289 -0.58204,0 -1.04102,0.18555 -1.37696,0.55664 -0.33594,0.3711 -0.5039,0.87695 -0.5039,1.51758 l 0,3.70898 -1.08399,0 0,-9.11719 1.08399,0 0,3.57422 c 0.25781,-0.39452 0.56054,-0.68945 0.9082,-0.88476 0.35156,-0.19531 0.75586,-0.29297 1.21289,-0.29297 0.7539,0 1.32422,0.23438 1.71094,0.70312 0.38671,0.46485 0.58007,1.1504 0.58008,2.05664"
         id="path7717"
         inkscape:connector-curvature="0" />
      <path
         d="m 341.38477,275.15826 0,3.20507 1.89843,0 c 0.63672,0 1.10742,-0.13085 1.41211,-0.39257 0.30859,-0.26563 0.46289,-0.66992 0.46289,-1.2129 0,-0.54687 -0.1543,-0.94921 -0.46289,-1.20703 -0.30469,-0.26171 -0.77539,-0.39257 -1.41211,-0.39257 l -1.89843,0 m 0,-3.59766 0,2.63672 1.75195,0 c 0.57812,0 1.00781,-0.10742 1.28906,-0.32227 0.28515,-0.21874 0.42773,-0.55077 0.42774,-0.99609 -10e-6,-0.4414 -0.14259,-0.77148 -0.42774,-0.99024 -0.28125,-0.21874 -0.71094,-0.32811 -1.28906,-0.32812 l -1.75195,0 m -1.1836,-0.97266 3.02344,0 c 0.90234,10e-6 1.59765,0.18751 2.08594,0.5625 0.48827,0.37501 0.73241,0.90821 0.73242,1.59961 -1e-5,0.53516 -0.12501,0.96095 -0.375,1.27735 -0.25001,0.31641 -0.61719,0.51367 -1.10156,0.59179 0.58202,0.12501 1.03319,0.38673 1.35351,0.78516 0.32421,0.39453 0.48632,0.88867 0.48633,1.48242 -10e-6,0.78125 -0.26563,1.38477 -0.79688,1.81055 -0.53125,0.42578 -1.28711,0.63867 -2.26757,0.63867 l -3.14063,0 0,-8.74805"
         id="path7719"
         inkscape:connector-curvature="0" />
      <path
         d="m 350.92383,273.52935 c -0.57813,10e-6 -1.03516,0.22657 -1.3711,0.67969 -0.33594,0.44922 -0.5039,1.06641 -0.5039,1.85156 0,0.78516 0.16601,1.4043 0.49804,1.85742 0.33594,0.44922 0.79492,0.67383 1.37696,0.67383 0.57421,0 1.02929,-0.22656 1.36523,-0.67969 0.33593,-0.45312 0.5039,-1.07031 0.50391,-1.85156 -1e-5,-0.77734 -0.16798,-1.39257 -0.50391,-1.8457 -0.33594,-0.45703 -0.79102,-0.68554 -1.36523,-0.68555 m 0,-0.91406 c 0.93749,0 1.67382,0.30469 2.20898,0.91406 0.53515,0.60938 0.80273,1.45313 0.80274,2.53125 -10e-6,1.07422 -0.26759,1.91797 -0.80274,2.53125 -0.53516,0.60937 -1.27149,0.91406 -2.20898,0.91406 -0.94141,0 -1.67969,-0.30469 -2.21485,-0.91406 -0.53125,-0.61328 -0.79687,-1.45703 -0.79687,-2.53125 0,-1.07812 0.26562,-1.92187 0.79687,-2.53125 0.53516,-0.60937 1.27344,-0.91406 2.21485,-0.91406"
         id="path7721"
         inkscape:connector-curvature="0" />
      <path
         d="m 355.60547,276.74615 0,-3.97266 1.07812,0 0,3.93164 c 0,0.6211 0.1211,1.08789 0.36328,1.40039 0.24219,0.3086 0.60547,0.46289 1.08985,0.46289 0.58203,0 1.04101,-0.18554 1.37695,-0.55664 0.33984,-0.37109 0.50976,-0.87695 0.50977,-1.51758 l 0,-3.7207 1.07812,0 0,6.5625 -1.07812,0 0,-1.00781 c -0.26173,0.39844 -0.56641,0.69531 -0.91407,0.89062 -0.34375,0.19141 -0.74414,0.28711 -1.20117,0.28711 -0.75391,0 -1.32617,-0.23437 -1.71679,-0.70312 -0.39063,-0.46875 -0.58594,-1.1543 -0.58594,-2.05664 m 2.71289,-4.13086 0,0"
         id="path7723"
         inkscape:connector-curvature="0" />
      <path
         d="m 368.78906,275.37505 0,3.96094 -1.07812,0 0,-3.92578 c -10e-6,-0.62109 -0.1211,-1.08593 -0.36328,-1.39453 -0.2422,-0.30859 -0.60548,-0.46289 -1.08985,-0.46289 -0.58203,0 -1.04102,0.18555 -1.37695,0.55664 -0.33594,0.3711 -0.50391,0.87695 -0.50391,1.51758 l 0,3.70898 -1.08398,0 0,-6.5625 1.08398,0 0,1.01953 c 0.25781,-0.39452 0.56055,-0.68945 0.90821,-0.88476 0.35156,-0.19531 0.75585,-0.29297 1.21289,-0.29297 0.7539,0 1.32421,0.23438 1.71093,0.70312 0.38672,0.46485 0.58008,1.1504 0.58008,2.05664"
         id="path7725"
         inkscape:connector-curvature="0" />
      <path
         d="m 375.26953,273.76958 0,-3.55078 1.07813,0 0,9.11719 -1.07813,0 0,-0.98438 c -0.22657,0.39063 -0.51368,0.68165 -0.86133,0.87305 -0.34375,0.1875 -0.75781,0.28125 -1.24218,0.28125 -0.79298,0 -1.43946,-0.3164 -1.93946,-0.94922 -0.49609,-0.63281 -0.74414,-1.46484 -0.74414,-2.49609 0,-1.03125 0.24805,-1.86328 0.74414,-2.49609 0.5,-0.63281 1.14648,-0.94922 1.93946,-0.94922 0.48437,0 0.89843,0.0957 1.24218,0.28711 0.34765,0.1875 0.63476,0.47656 0.86133,0.86718 m -3.67383,2.29102 c 0,0.79297 0.16211,1.41602 0.48633,1.86914 0.32812,0.44922 0.77734,0.67383 1.34766,0.67383 0.57031,0 1.01952,-0.22461 1.34765,-0.67383 0.32812,-0.45312 0.49219,-1.07617 0.49219,-1.86914 0,-0.79297 -0.16407,-1.41406 -0.49219,-1.86328 -0.32813,-0.45312 -0.77734,-0.67968 -1.34765,-0.67969 -0.57032,10e-6 -1.01954,0.22657 -1.34766,0.67969 -0.32422,0.44922 -0.48633,1.07031 -0.48633,1.86328"
         id="path7727"
         inkscape:connector-curvature="0" />
      <path
         d="m 378.70898,273.88677 7.51172,0 0,0.98438 -7.51172,0 0,-0.98438 m 0,2.39063 7.51172,0 0,0.99609 -7.51172,0 0,-0.99609"
         id="path7729"
         inkscape:connector-curvature="0" />
      <path
         d="m 389.68945,270.91021 0,1.86328 2.22071,0 0,0.83789 -2.22071,0 0,3.5625 c 0,0.53516 0.0723,0.87891 0.2168,1.03125 0.14843,0.15235 0.44726,0.22852 0.89648,0.22852 l 1.10743,0 0,0.90234 -1.10743,0 c -0.83203,0 -1.40625,-0.1543 -1.72265,-0.46289 -0.31641,-0.3125 -0.47461,-0.87891 -0.47461,-1.69922 l 0,-3.5625 -0.79102,0 0,-0.83789 0.79102,0 0,-1.86328 1.08398,0"
         id="path7731"
         inkscape:connector-curvature="0" />
      <path
         d="m 397.13672,273.7813 c -0.1211,-0.0703 -0.25391,-0.12109 -0.39844,-0.15234 -0.14063,-0.0351 -0.29688,-0.0527 -0.46875,-0.0527 -0.60938,1e-5 -1.07813,0.19923 -1.40625,0.59766 -0.32422,0.39454 -0.48633,0.9629 -0.48633,1.70508 l 0,3.45703 -1.08398,0 0,-6.5625 1.08398,0 0,1.01953 c 0.22656,-0.39843 0.52148,-0.69335 0.88477,-0.88476 0.36328,-0.19531 0.80468,-0.29297 1.32422,-0.29297 0.0742,0 0.15624,0.006 0.24609,0.0176 0.0898,0.008 0.18945,0.0215 0.29883,0.041 l 0.006,1.10742"
         id="path7733"
         inkscape:connector-curvature="0" />
      <path
         d="m 398.16797,276.74615 0,-3.97266 1.07812,0 0,3.93164 c 0,0.6211 0.1211,1.08789 0.36328,1.40039 0.24219,0.3086 0.60547,0.46289 1.08985,0.46289 0.58203,0 1.04101,-0.18554 1.37695,-0.55664 0.33984,-0.37109 0.50976,-0.87695 0.50977,-1.51758 l 0,-3.7207 1.07812,0 0,6.5625 -1.07812,0 0,-1.00781 c -0.26173,0.39844 -0.56641,0.69531 -0.91407,0.89062 -0.34375,0.19141 -0.74414,0.28711 -1.20117,0.28711 -0.75391,0 -1.32617,-0.23437 -1.71679,-0.70312 -0.39063,-0.46875 -0.58594,-1.1543 -0.58594,-2.05664 m 2.71289,-4.13086 0,0"
         id="path7735"
         inkscape:connector-curvature="0" />
      <path
         d="m 411.50977,275.78521 0,0.52734 -4.95704,0 c 0.0469,0.74219 0.26953,1.3086 0.66797,1.69922 0.40234,0.38672 0.96094,0.58008 1.67578,0.58008 0.41406,0 0.81445,-0.0508 1.20118,-0.15234 0.39062,-0.10157 0.77733,-0.25391 1.16015,-0.45704 l 0,1.01954 c -0.38672,0.16406 -0.78321,0.28906 -1.18945,0.375 -0.40626,0.0859 -0.81836,0.1289 -1.23633,0.1289 -1.04688,0 -1.87695,-0.30469 -2.49023,-0.91406 -0.60938,-0.60937 -0.91407,-1.43359 -0.91407,-2.47266 0,-1.07421 0.28907,-1.92577 0.86719,-2.55468 0.58203,-0.63281 1.36523,-0.94922 2.34961,-0.94922 0.88281,0 1.58007,0.28516 2.0918,0.85547 0.51562,0.56641 0.77343,1.33789 0.77344,2.31445 m -1.07813,-0.31641 c -0.008,-0.58984 -0.17383,-1.06054 -0.49805,-1.41211 -0.32031,-0.35155 -0.74609,-0.52733 -1.27734,-0.52734 -0.60157,10e-6 -1.08399,0.16993 -1.44727,0.50976 -0.35937,0.33985 -0.5664,0.81837 -0.62109,1.43555 l 3.84375,-0.006"
         id="path7737"
         inkscape:connector-curvature="0" />
    </g>
    <g
       transform="translate(-77.142857,-102.85714)"
       style="font-size:12px;font-style:normal;font-weight:normal;line-height:125%;letter-spacing:0px;word-spacing:0px;fill:#000000;fill-opacity:1;stroke:none;font-family:Sans"
       id="flowRoot6518">
      <path
         d="m 111.84961,142.3438 1.07812,0 0,9.11719 -1.07812,0 0,-9.11719"
         id="path7778"
         inkscape:connector-curvature="0" />
      <path
         d="m 117.7207,145.65435 c -0.57812,1e-5 -1.03516,0.22657 -1.37109,0.67969 -0.33594,0.44922 -0.50391,1.06641 -0.50391,1.85156 0,0.78516 0.16602,1.4043 0.49805,1.85742 0.33593,0.44922 0.79492,0.67383 1.37695,0.67383 0.57422,0 1.0293,-0.22656 1.36524,-0.67969 0.33593,-0.45312 0.5039,-1.07031 0.5039,-1.85156 0,-0.77734 -0.16797,-1.39257 -0.5039,-1.8457 -0.33594,-0.45703 -0.79102,-0.68554 -1.36524,-0.68555 m 0,-0.91406 c 0.9375,0 1.67383,0.30469 2.20899,0.91406 0.53515,0.60938 0.80273,1.45313 0.80273,2.53125 0,1.07422 -0.26758,1.91797 -0.80273,2.53125 -0.53516,0.60937 -1.27149,0.91406 -2.20899,0.91406 -0.94141,0 -1.67969,-0.30469 -2.21484,-0.91406 -0.53125,-0.61328 -0.79688,-1.45703 -0.79688,-2.53125 0,-1.07812 0.26563,-1.92187 0.79688,-2.53125 0.53515,-0.60937 1.27343,-0.91406 2.21484,-0.91406"
         id="path7780"
         inkscape:connector-curvature="0" />
      <path
         d="m 121.88672,144.89849 1.07812,0 1.34766,5.12109 1.3418,-5.12109 1.27148,0 1.34766,5.12109 1.34179,-5.12109 1.07813,0 -1.7168,6.5625 -1.27148,0 -1.41211,-5.37891 -1.41797,5.37891 -1.27148,0 -1.7168,-6.5625"
         id="path7782"
         inkscape:connector-curvature="0" />
      <path
         d="m 133.56445,147.28326 0,3.20507 1.89844,0 c 0.63671,0 1.10742,-0.13085 1.41211,-0.39257 0.30859,-0.26563 0.46288,-0.66992 0.46289,-1.2129 -10e-6,-0.54687 -0.1543,-0.94921 -0.46289,-1.20703 -0.30469,-0.26171 -0.7754,-0.39257 -1.41211,-0.39257 l -1.89844,0 m 0,-3.59766 0,2.63672 1.75196,0 c 0.57812,0 1.0078,-0.10742 1.28906,-0.32227 0.28515,-0.21874 0.42773,-0.55077 0.42773,-0.99609 0,-0.4414 -0.14258,-0.77148 -0.42773,-0.99024 -0.28126,-0.21874 -0.71094,-0.32811 -1.28906,-0.32812 l -1.75196,0 m -1.18359,-0.97266 3.02344,0 c 0.90234,1e-5 1.59765,0.18751 2.08593,0.5625 0.48828,0.37501 0.73242,0.90821 0.73243,1.59961 -1e-5,0.53516 -0.12501,0.96095 -0.375,1.27735 -0.25001,0.31641 -0.6172,0.51367 -1.10157,0.59179 0.58203,0.12501 1.0332,0.38673 1.35352,0.78516 0.32421,0.39453 0.48632,0.88867 0.48633,1.48242 -1e-5,0.78125 -0.26563,1.38477 -0.79688,1.81055 -0.53125,0.42578 -1.28711,0.63867 -2.26758,0.63867 l -3.14062,0 0,-8.74805"
         id="path7784"
         inkscape:connector-curvature="0" />
      <path
         d="m 143.10352,145.65435 c -0.57813,1e-5 -1.03516,0.22657 -1.3711,0.67969 -0.33594,0.44922 -0.50391,1.06641 -0.5039,1.85156 -1e-5,0.78516 0.16601,1.4043 0.49804,1.85742 0.33594,0.44922 0.79492,0.67383 1.37696,0.67383 0.57421,0 1.02929,-0.22656 1.36523,-0.67969 0.33593,-0.45312 0.5039,-1.07031 0.50391,-1.85156 -1e-5,-0.77734 -0.16798,-1.39257 -0.50391,-1.8457 -0.33594,-0.45703 -0.79102,-0.68554 -1.36523,-0.68555 m 0,-0.91406 c 0.93749,0 1.67382,0.30469 2.20898,0.91406 0.53515,0.60938 0.80273,1.45313 0.80273,2.53125 0,1.07422 -0.26758,1.91797 -0.80273,2.53125 -0.53516,0.60937 -1.27149,0.91406 -2.20898,0.91406 -0.94141,0 -1.67969,-0.30469 -2.21485,-0.91406 -0.53125,-0.61328 -0.79687,-1.45703 -0.79687,-2.53125 0,-1.07812 0.26562,-1.92187 0.79687,-2.53125 0.53516,-0.60937 1.27344,-0.91406 2.21485,-0.91406"
         id="path7786"
         inkscape:connector-curvature="0" />
      <path
         d="m 147.78516,148.87115 0,-3.97266 1.07812,0 0,3.93164 c 0,0.6211 0.12109,1.08789 0.36328,1.40039 0.24219,0.3086 0.60547,0.46289 1.08985,0.46289 0.58202,0 1.04101,-0.18554 1.37695,-0.55664 0.33984,-0.37109 0.50976,-0.87695 0.50976,-1.51758 l 0,-3.7207 1.07813,0 0,6.5625 -1.07813,0 0,-1.00781 c -0.26172,0.39844 -0.56641,0.69531 -0.91406,0.89062 -0.34375,0.19141 -0.74414,0.28711 -1.20117,0.28711 -0.75391,0 -1.32617,-0.23437 -1.7168,-0.70312 -0.39062,-0.46875 -0.58593,-1.1543 -0.58593,-2.05664 m 2.71289,-4.13086 0,0"
         id="path7788"
         inkscape:connector-curvature="0" />
      <path
         d="m 160.96875,147.50005 0,3.96094 -1.07813,0 0,-3.92578 c 0,-0.62109 -0.12109,-1.08593 -0.36328,-1.39453 -0.24219,-0.30859 -0.60547,-0.46289 -1.08984,-0.46289 -0.58203,0 -1.04102,0.18555 -1.37695,0.55664 -0.33594,0.3711 -0.50391,0.87695 -0.50391,1.51758 l 0,3.70898 -1.08398,0 0,-6.5625 1.08398,0 0,1.01953 c 0.25781,-0.39452 0.56054,-0.68945 0.9082,-0.88476 0.35156,-0.19531 0.75586,-0.29297 1.21289,-0.29297 0.75391,0 1.32422,0.23438 1.71094,0.70312 0.38671,0.46485 0.58007,1.1504 0.58008,2.05664"
         id="path7790"
         inkscape:connector-curvature="0" />
      <path
         d="m 167.44922,145.89458 0,-3.55078 1.07812,0 0,9.11719 -1.07812,0 0,-0.98438 c -0.22657,0.39063 -0.51368,0.68165 -0.86133,0.87305 -0.34375,0.1875 -0.75782,0.28125 -1.24219,0.28125 -0.79297,0 -1.43945,-0.3164 -1.93945,-0.94922 -0.49609,-0.63281 -0.74414,-1.46484 -0.74414,-2.49609 0,-1.03125 0.24805,-1.86328 0.74414,-2.49609 0.5,-0.63281 1.14648,-0.94922 1.93945,-0.94922 0.48437,0 0.89844,0.0957 1.24219,0.28711 0.34765,0.1875 0.63476,0.47656 0.86133,0.86718 m -3.67383,2.29102 c 0,0.79297 0.16211,1.41602 0.48633,1.86914 0.32812,0.44922 0.77734,0.67383 1.34765,0.67383 0.57031,0 1.01953,-0.22461 1.34766,-0.67383 0.32812,-0.45312 0.49218,-1.07617 0.49219,-1.86914 -1e-5,-0.79297 -0.16407,-1.41406 -0.49219,-1.86328 -0.32813,-0.45312 -0.77735,-0.67968 -1.34766,-0.67969 -0.57031,1e-5 -1.01953,0.22657 -1.34765,0.67969 -0.32422,0.44922 -0.48633,1.07031 -0.48633,1.86328"
         id="path7792"
         inkscape:connector-curvature="0" />
      <path
         d="m 170.88867,146.01177 7.51172,0 0,0.98438 -7.51172,0 0,-0.98438 m 0,2.39063 7.51172,0 0,0.99609 -7.51172,0 0,-0.99609"
         id="path7794"
         inkscape:connector-curvature="0" />
      <path
         d="m 184.125,142.3438 0,0.89649 -1.03125,0 c -0.38672,1e-5 -0.65625,0.0781 -0.80859,0.23437 -0.14844,0.15626 -0.22266,0.43751 -0.22266,0.84375 l 0,0.58008 1.77539,0 0,0.83789 -1.77539,0 0,5.72461 -1.08398,0 0,-5.72461 -1.03125,0 0,-0.83789 1.03125,0 0,-0.45703 c -1e-5,-0.73046 0.16992,-1.26171 0.50976,-1.59375 0.33984,-0.33593 0.8789,-0.5039 1.61719,-0.50391 l 1.01953,0"
         id="path7796"
         inkscape:connector-curvature="0" />
      <path
         d="m 188.00391,148.16216 c -0.8711,1e-5 -1.47462,0.0996 -1.81055,0.29883 -0.33594,0.19922 -0.50391,0.53906 -0.50391,1.01953 0,0.38282 0.125,0.6875 0.375,0.91406 0.25391,0.22266 0.59766,0.33399 1.03125,0.33399 0.59766,0 1.07617,-0.21094 1.43555,-0.63281 0.36328,-0.42578 0.54492,-0.99024 0.54492,-1.69336 l 0,-0.24024 -1.07226,0 m 2.15039,-0.44531 0,3.74414 -1.07813,0 0,-0.99609 c -0.2461,0.39843 -0.55274,0.69336 -0.91992,0.88476 -0.36719,0.1875 -0.81641,0.28125 -1.34766,0.28125 -0.67187,0 -1.20703,-0.1875 -1.60547,-0.5625 -0.39453,-0.3789 -0.59179,-0.88476 -0.59179,-1.51758 0,-0.73827 0.24609,-1.29491 0.73828,-1.66992 0.49609,-0.37499 1.23437,-0.56249 2.21484,-0.5625 l 1.51172,0 0,-0.10547 c 0,-0.49609 -0.16407,-0.8789 -0.49219,-1.14843 -0.32422,-0.27344 -0.78125,-0.41015 -1.37109,-0.41016 -0.375,1e-5 -0.74024,0.0449 -1.0957,0.13476 -0.35547,0.0899 -0.69727,0.22462 -1.02539,0.4043 l 0,-0.99609 c 0.39453,-0.15234 0.77734,-0.26562 1.14843,-0.33985 0.3711,-0.0781 0.73242,-0.11718 1.08399,-0.11718 0.94921,0 1.6582,0.2461 2.12695,0.73828 0.46875,0.49219 0.70312,1.23828 0.70313,2.23828"
         id="path7798"
         inkscape:connector-curvature="0" />
      <path
         d="m 192.38086,142.3438 1.07812,0 0,9.11719 -1.07812,0 0,-9.11719"
         id="path7800"
         inkscape:connector-curvature="0" />
      <path
         d="m 199.89258,145.09185 0,1.01953 c -0.30469,-0.15624 -0.6211,-0.27343 -0.94922,-0.35156 -0.32813,-0.0781 -0.66797,-0.11718 -1.01953,-0.11719 -0.53516,1e-5 -0.9375,0.082 -1.20703,0.24609 -0.26563,0.16407 -0.39844,0.41017 -0.39844,0.73829 0,0.25 0.0957,0.44727 0.28711,0.59179 0.1914,0.14063 0.57617,0.2754 1.1543,0.4043 l 0.36914,0.082 c 0.76562,0.16407 1.30859,0.39649 1.6289,0.69727 0.32422,0.29687 0.48632,0.71289 0.48633,1.24804 -10e-6,0.60938 -0.24219,1.0918 -0.72656,1.44727 -0.48048,0.35547 -1.14258,0.5332 -1.98633,0.5332 -0.35157,0 -0.71875,-0.0351 -1.10156,-0.10547 -0.37891,-0.0664 -0.7793,-0.16797 -1.20117,-0.30468 l 0,-1.11329 c 0.39843,0.20704 0.79101,0.36329 1.17773,0.46875 0.38672,0.10157 0.76953,0.15235 1.14844,0.15235 0.50781,0 0.89843,-0.0859 1.17187,-0.25781 0.27344,-0.17578 0.41015,-0.42188 0.41016,-0.73829 -1e-5,-0.29296 -0.0996,-0.51757 -0.29883,-0.67382 -0.19532,-0.15625 -0.62696,-0.30664 -1.29492,-0.45118 l -0.375,-0.0879 c -0.66797,-0.14062 -1.15039,-0.35546 -1.44727,-0.64453 -0.29687,-0.29296 -0.44531,-0.69335 -0.44531,-1.20117 0,-0.61718 0.21875,-1.09374 0.65625,-1.42969 0.4375,-0.33593 1.05859,-0.5039 1.86328,-0.5039 0.39844,0 0.77344,0.0293 1.125,0.0879 0.35156,0.0586 0.67578,0.14649 0.97266,0.26367"
         id="path7802"
         inkscape:connector-curvature="0" />
      <path
         d="m 207.58008,147.91021 0,0.52734 -4.95703,0 c 0.0469,0.74219 0.26953,1.3086 0.66797,1.69922 0.40234,0.38672 0.96093,0.58008 1.67578,0.58008 0.41405,0 0.81445,-0.0508 1.20117,-0.15234 0.39062,-0.10157 0.77734,-0.25391 1.16015,-0.45704 l 0,1.01954 c -0.38672,0.16406 -0.7832,0.28906 -1.18945,0.375 -0.40625,0.0859 -0.81836,0.1289 -1.23633,0.1289 -1.04687,0 -1.87695,-0.30469 -2.49023,-0.91406 -0.60938,-0.60937 -0.91406,-1.43359 -0.91406,-2.47266 0,-1.07421 0.28906,-1.92577 0.86718,-2.55468 0.58203,-0.63281 1.36524,-0.94922 2.34961,-0.94922 0.88281,0 1.58008,0.28516 2.0918,0.85547 0.51562,0.56641 0.77343,1.33789 0.77344,2.31445 m -1.07813,-0.31641 c -0.008,-0.58984 -0.17383,-1.06054 -0.49804,-1.41211 -0.32032,-0.35155 -0.7461,-0.52733 -1.27735,-0.52734 -0.60156,1e-5 -1.08398,0.16993 -1.44726,0.50976 -0.35938,0.33985 -0.56641,0.81837 -0.6211,1.43555 l 3.84375,-0.006"
         id="path7804"
         inkscape:connector-curvature="0" />
    </g>
    <path
       style="fill:none;stroke:#0030ff;stroke-width:1;stroke-linecap:butt;stroke-linejoin:miter;stroke-miterlimit:4;stroke-opacity:1;stroke-dasharray:3, 3;stroke-dashoffset:0;marker-end:url(#DiamondL-9)"
       d="m 300.71429,216.63113 87.85714,8.57143"
       id="path7307"
       inkscape:connector-curvature="0"
       transform="translate(34.706752,39.486662)" />
    <path
       style="fill:none;stroke:#ed1c1c;stroke-width:1.01129568;stroke-linecap:butt;stroke-linejoin:miter;stroke-miterlimit:4;stroke-opacity:1;stroke-dasharray:1.01129571, 1.01129571;stroke-dashoffset:0"
       d="m 335.06955,255.7663 97.84584,71.41728"
       id="path5861-1"
       inkscape:connector-curvature="0" />
    <flowRoot
       transform="translate(56.534239,-102.22886)"
       xml:space="preserve"
       id="flowRoot6495-1"
       style="font-size:12px;font-style:normal;font-weight:normal;line-height:125%;letter-spacing:0px;word-spacing:0px;fill:#000000;fill-opacity:1;stroke:none;font-family:Sans"><flowRegion
         id="flowRegion6497-1" /><flowPara
         id="flowPara6501-7">TRBTT<flowSpan
   style="font-size:65.00091553%;baseline-shift:sub"
   id="flowSpan6503-3">3</flowSpan></flowPara></flowRoot>    <g
       transform="translate(97.073337,127.3122)"
       style="font-size:12px;font-style:normal;font-weight:normal;line-height:125%;letter-spacing:0px;word-spacing:0px;fill:#000000;fill-opacity:1;stroke:none;font-family:Sans"
       id="flowRoot7547-0">
      <path
         d="m 84.964844,39.119193 7.40039,0 0,0.996094 -3.105468,0 0,7.751953 -1.189454,0 0,-7.751953 -3.105468,0 0,-0.996094"
         id="path7740"
         inkscape:connector-curvature="0" />
      <path
         d="m 95.797998,47.601187 c 0.165038,0.05586 0.325001,0.1752 0.47989,0.358013 0.15742,0.182817 0.314843,0.434187 0.472272,0.754112 l 0.780773,1.553928 -0.826477,0 -0.727452,-1.458712 c -0.187896,-0.380863 -0.370711,-0.633503 -0.548445,-0.757921 -0.175201,-0.124413 -0.415145,-0.186621 -0.719834,-0.186623 l -0.837903,0 0,2.403256 -0.769346,0 0,-5.686311 1.736743,0 c 0.650006,6e-6 1.134973,0.135848 1.454903,0.407526 0.319922,0.271688 0.479885,0.681752 0.47989,1.230193 -5e-6,0.358016 -0.08379,0.655091 -0.251371,0.891223 -0.165045,0.236139 -0.40626,0.399911 -0.723643,0.491316 m -1.927176,-2.388022 0,2.018583 0.967397,0 c 0.370705,3e-6 0.650006,-0.08506 0.837902,-0.255179 0.190429,-0.172656 0.285645,-0.425296 0.285649,-0.757921 -4e-6,-0.332618 -0.09522,-0.582719 -0.285649,-0.750304 -0.187896,-0.170114 -0.467197,-0.255174 -0.837902,-0.255179 l -0.967397,0"
         style="font-size:65.00091553%;baseline-shift:sub"
         id="path7742"
         inkscape:connector-curvature="0" />
      <path
         d="m 99.294336,47.551674 0,2.083331 1.234004,0 c 0.41387,0 0.71983,-0.08506 0.91788,-0.25518 0.20059,-0.172657 0.30088,-0.435454 0.30088,-0.78839 0,-0.355472 -0.10029,-0.616998 -0.30088,-0.784581 -0.19805,-0.170117 -0.50401,-0.255177 -0.91788,-0.25518 l -1.234004,0 m 0,-2.338509 0,1.713891 1.138784,0 c 0.37578,4e-6 0.65509,-0.06982 0.8379,-0.209475 0.18535,-0.142186 0.27803,-0.358009 0.27804,-0.64747 -1e-5,-0.286914 -0.0927,-0.501468 -0.27804,-0.643662 -0.18281,-0.142184 -0.46212,-0.213279 -0.8379,-0.213284 l -1.138784,0 m -0.769347,-0.632236 1.965261,0 c 0.58653,6e-6 1.03849,0.121883 1.35588,0.365631 0.31738,0.243758 0.47608,0.590345 0.47608,1.03976 0,0.347861 -0.0813,0.624622 -0.24375,0.830285 -0.16251,0.205671 -0.40118,0.333895 -0.71603,0.384674 0.37832,0.08125 0.67159,0.251373 0.8798,0.510359 0.21074,0.256451 0.31611,0.577646 0.31612,0.963587 -1e-5,0.507821 -0.17267,0.900111 -0.51798,1.176872 -0.34532,0.276762 -0.83664,0.415143 -1.47395,0.415143 l -2.041431,0 0,-5.686311"
         style="font-size:65.00091553%;baseline-shift:sub"
         id="path7744"
         inkscape:connector-curvature="0" />
      <path
         d="m 104.07419,52.01977 1.25685,0 0,-4.338049 -1.3673,0.274222 0,-0.700791 1.35969,-0.274222 0.76934,0 0,5.03884 1.25686,0 0,0.64747 -3.27544,0 0,-0.64747"
         id="path7746"
         inkscape:connector-curvature="0" />
    </g>
    <g
       transform="translate(234.93049,230.16935)"
       style="font-size:12px;font-style:normal;font-weight:normal;line-height:125%;letter-spacing:0px;word-spacing:0px;fill:#000000;fill-opacity:1;stroke:none;font-family:Sans"
       id="flowRoot7547-00">
      <path
         d="m 84.964844,39.119193 7.40039,0 0,0.996094 -3.105468,0 0,7.751953 -1.189454,0 0,-7.751953 -3.105468,0 0,-0.996094"
         id="path7695"
         inkscape:connector-curvature="0" />
      <path
         d="m 95.797998,47.601187 c 0.165038,0.05586 0.325001,0.1752 0.47989,0.358013 0.15742,0.182817 0.314843,0.434187 0.472272,0.754112 l 0.780773,1.553928 -0.826477,0 -0.727452,-1.458712 c -0.187896,-0.380863 -0.370711,-0.633503 -0.548445,-0.757921 -0.175201,-0.124413 -0.415145,-0.186621 -0.719834,-0.186623 l -0.837903,0 0,2.403256 -0.769346,0 0,-5.686311 1.736743,0 c 0.650006,6e-6 1.134973,0.135848 1.454903,0.407526 0.319922,0.271688 0.479885,0.681752 0.47989,1.230193 -5e-6,0.358016 -0.08379,0.655091 -0.251371,0.891223 -0.165045,0.236139 -0.40626,0.399911 -0.723643,0.491316 m -1.927176,-2.388022 0,2.018583 0.967397,0 c 0.370705,3e-6 0.650006,-0.08506 0.837902,-0.255179 0.190429,-0.172656 0.285645,-0.425296 0.285649,-0.757921 -4e-6,-0.332618 -0.09522,-0.582719 -0.285649,-0.750304 -0.187896,-0.170114 -0.467197,-0.255174 -0.837902,-0.255179 l -0.967397,0"
         style="font-size:65.00091553%;baseline-shift:sub"
         id="path7697"
         inkscape:connector-curvature="0" />
      <path
         d="m 99.294336,47.551674 0,2.083331 1.234004,0 c 0.41387,0 0.71983,-0.08506 0.91788,-0.25518 0.20059,-0.172657 0.30088,-0.435454 0.30088,-0.78839 0,-0.355472 -0.10029,-0.616998 -0.30088,-0.784581 -0.19805,-0.170117 -0.50401,-0.255177 -0.91788,-0.25518 l -1.234004,0 m 0,-2.338509 0,1.713891 1.138784,0 c 0.37578,4e-6 0.65509,-0.06982 0.8379,-0.209475 0.18535,-0.142186 0.27803,-0.358009 0.27804,-0.64747 -1e-5,-0.286914 -0.0927,-0.501468 -0.27804,-0.643662 -0.18281,-0.142184 -0.46212,-0.213279 -0.8379,-0.213284 l -1.138784,0 m -0.769347,-0.632236 1.965261,0 c 0.58653,6e-6 1.03849,0.121883 1.35588,0.365631 0.31738,0.243758 0.47608,0.590345 0.47608,1.03976 0,0.347861 -0.0813,0.624622 -0.24375,0.830285 -0.16251,0.205671 -0.40118,0.333895 -0.71603,0.384674 0.37832,0.08125 0.67159,0.251373 0.8798,0.510359 0.21074,0.256451 0.31611,0.577646 0.31612,0.963587 -1e-5,0.507821 -0.17267,0.900111 -0.51798,1.176872 -0.34532,0.276762 -0.83664,0.415143 -1.47395,0.415143 l -2.041431,0 0,-5.686311"
         style="font-size:65.00091553%;baseline-shift:sub"
         id="path7699"
         inkscape:connector-curvature="0" />
      <path
         d="m 104.60359,52.01977 2.6851,0 0,0.64747 -3.6106,0 0,-0.64747 c 0.29199,-0.302152 0.68936,-0.707137 1.19211,-1.214958 0.50527,-0.510357 0.82266,-0.83917 0.95216,-0.98644 0.24629,-0.276759 0.41768,-0.510356 0.51417,-0.700791 0.099,-0.192968 0.14853,-0.382131 0.14853,-0.567489 0,-0.302148 -0.10664,-0.54844 -0.31992,-0.738877 -0.21075,-0.190428 -0.48624,-0.285644 -0.82648,-0.285649 -0.24122,5e-6 -0.4964,0.0419 -0.76554,0.125686 -0.2666,0.0838 -0.55225,0.210749 -0.85694,0.380864 l 0,-0.776964 c 0.30977,-0.12441 0.59922,-0.218357 0.86837,-0.28184 0.26914,-0.06347 0.51543,-0.09521 0.73888,-0.09522 0.58906,6e-6 1.0588,0.147273 1.40919,0.441803 0.3504,0.294541 0.52559,0.6881 0.5256,1.180681 -10e-6,0.233601 -0.0444,0.455772 -0.1333,0.666513 -0.0863,0.20821 -0.24503,0.454502 -0.47609,0.738878 -0.0635,0.07364 -0.26533,0.28692 -0.60557,0.639853 -0.34024,0.350397 -0.82013,0.841712 -1.43967,1.473946"
         id="path7701"
         inkscape:connector-curvature="0" />
    </g>
    <g
       transform="translate(84.706752,11.629519)"
       style="font-size:12px;font-style:normal;font-weight:normal;line-height:125%;letter-spacing:0px;word-spacing:0px;fill:#000000;fill-opacity:1;stroke:none;font-family:Sans"
       id="flowRoot7613">
      <path
         d="m 88.917969,97.966181 c -0.348961,0.598964 -0.608075,1.191411 -0.777344,1.777344 -0.169272,0.585945 -0.253908,1.179695 -0.253906,1.781245 -2e-6,0.60157 0.08463,1.19792 0.253906,1.78907 0.171873,0.58854 0.430987,1.18099 0.777344,1.77734 l -0.625,0 c -0.390627,-0.61198 -0.683595,-1.21354 -0.878907,-1.80469 -0.192709,-0.59114 -0.289063,-1.17838 -0.289062,-1.76172 -10e-7,-0.58072 0.09635,-1.16536 0.289062,-1.753902 0.192708,-0.588537 0.485676,-1.190098 0.878907,-1.804687 l 0.625,0"
         style="font-size:8px"
         id="path7754"
         inkscape:connector-curvature="0" />
      <path
         d="m 93.953125,99.661493 -1.582031,2.128907 1.664062,2.24609 -0.847656,0 -1.273438,-1.71875 -1.273437,1.71875 -0.847656,0 1.699218,-2.28906 -1.554687,-2.085937 0.847656,0 1.160156,1.558597 1.160157,-1.558597 0.847656,0"
         style="font-size:8px"
         id="path7756"
         inkscape:connector-curvature="0" />
      <path
         d="m 95.289062,103.37243 1.289063,0 0,-4.449218 -1.402344,0.28125 0,-0.71875 1.394531,-0.28125 0.789063,0 0,5.167968 1.289062,0 0,0.66406 -3.359375,0 0,-0.66406"
         style="font-size:8px"
         id="path7758"
         inkscape:connector-curvature="0" />
      <path
         d="m 100.32813,103.04431 0.82421,0 0,0.67187 -0.64062,1.25 -0.50391,0 0.32032,-1.25 0,-0.67187"
         style="font-size:8px"
         id="path7760"
         inkscape:connector-curvature="0" />
      <path
         d="m 107.05859,104.44274 c -0.20312,0.52084 -0.40104,0.86068 -0.59375,1.01953 -0.19271,0.15886 -0.45052,0.23828 -0.77343,0.23829 l -0.57422,0 0,-0.60157 0.42187,0 c 0.19792,0 0.35156,-0.0469 0.46094,-0.14062 0.10937,-0.0937 0.23047,-0.31511 0.36328,-0.66406 l 0.12891,-0.32813 -1.76953,-4.304687 0.76172,0 1.36718,3.421877 1.36719,-3.421877 0.76172,0 -1.92188,4.781247"
         style="font-size:8px"
         id="path7762"
         inkscape:connector-curvature="0" />
      <path
         d="m 110.21094,103.37243 1.28906,0 0,-4.449218 -1.40234,0.28125 0,-0.71875 1.39453,-0.28125 0.78906,0 0,5.167968 1.28906,0 0,0.66406 -3.35937,0 0,-0.66406"
         style="font-size:8px"
         id="path7764"
         inkscape:connector-curvature="0" />
      <path
         d="m 114.95313,97.966181 0.625,0 c 0.39062,0.614589 0.68228,1.21615 0.875,1.804687 0.19531,0.588542 0.29296,1.173182 0.29296,1.753902 0,0.58334 -0.0977,1.17058 -0.29296,1.76172 -0.19272,0.59115 -0.48438,1.19271 -0.875,1.80469 l -0.625,0 c 0.34635,-0.59635 0.60416,-1.1888 0.77343,-1.77734 0.17188,-0.59115 0.25781,-1.1875 0.25782,-1.78907 -1e-5,-0.60155 -0.0859,-1.1953 -0.25782,-1.781245 -0.16927,-0.585933 -0.42708,-1.17838 -0.77343,-1.777344"
         style="font-size:8px"
         id="path7766"
         inkscape:connector-curvature="0" />
    </g>
    <g
       transform="translate(260.02218,137.25615)"
       style="font-size:12px;font-style:normal;font-weight:normal;line-height:125%;letter-spacing:0px;word-spacing:0px;fill:#000000;fill-opacity:1;stroke:none;font-family:Sans"
       id="flowRoot7613-7">
      <path
         d="m 88.917969,97.966181 c -0.348961,0.598964 -0.608075,1.191411 -0.777344,1.777344 -0.169272,0.585945 -0.253908,1.179695 -0.253906,1.781245 -2e-6,0.60157 0.08463,1.19792 0.253906,1.78907 0.171873,0.58854 0.430987,1.18099 0.777344,1.77734 l -0.625,0 c -0.390627,-0.61198 -0.683595,-1.21354 -0.878907,-1.80469 -0.192709,-0.59114 -0.289063,-1.17838 -0.289062,-1.76172 -10e-7,-0.58072 0.09635,-1.16536 0.289062,-1.753902 0.192708,-0.588537 0.485676,-1.190098 0.878907,-1.804687 l 0.625,0"
         style="font-size:8px"
         id="path7675"
         inkscape:connector-curvature="0" />
      <path
         d="m 93.953125,99.661493 -1.582031,2.128907 1.664062,2.24609 -0.847656,0 -1.273438,-1.71875 -1.273437,1.71875 -0.847656,0 1.699218,-2.28906 -1.554687,-2.085937 0.847656,0 1.160156,1.558597 1.160157,-1.558597 0.847656,0"
         style="font-size:8px"
         id="path7677"
         inkscape:connector-curvature="0" />
      <path
         d="m 95.832031,103.37243 2.753906,0 0,0.66406 -3.703125,0 0,-0.66406 c 0.299479,-0.30989 0.70703,-0.72526 1.222657,-1.24609 0.518227,-0.52344 0.843747,-0.86068 0.976562,-1.01172 0.252601,-0.28385 0.428382,-0.52344 0.527344,-0.71875 0.101559,-0.19791 0.15234,-0.39192 0.152344,-0.582033 -4e-6,-0.309891 -0.109379,-0.562495 -0.328125,-0.757812 -0.216149,-0.195308 -0.498701,-0.292964 -0.847657,-0.292969 -0.247397,5e-6 -0.509116,0.04297 -0.785156,0.128906 -0.273438,0.08594 -0.566407,0.216151 -0.878906,0.390625 l 0,-0.796875 c 0.317707,-0.127598 0.614582,-0.223953 0.890625,-0.289062 0.27604,-0.0651 0.528644,-0.09765 0.757812,-0.09766 0.604164,6e-6 1.085935,0.151048 1.445313,0.453125 0.359371,0.302089 0.539058,0.705734 0.539062,1.210938 -4e-6,0.239587 -0.04558,0.467457 -0.136718,0.683597 -0.08855,0.21354 -0.251306,0.46615 -0.488282,0.75781 -0.06511,0.0755 -0.272138,0.29428 -0.621093,0.65625 -0.348961,0.35938 -0.841148,0.86328 -1.476563,1.51172"
         style="font-size:8px"
         id="path7679"
         inkscape:connector-curvature="0" />
      <path
         d="m 100.32813,103.04431 0.82421,0 0,0.67187 -0.64062,1.25 -0.50391,0 0.32032,-1.25 0,-0.67187"
         style="font-size:8px"
         id="path7681"
         inkscape:connector-curvature="0" />
      <path
         d="m 107.05859,104.44274 c -0.20312,0.52084 -0.40104,0.86068 -0.59375,1.01953 -0.19271,0.15886 -0.45052,0.23828 -0.77343,0.23829 l -0.57422,0 0,-0.60157 0.42187,0 c 0.19792,0 0.35156,-0.0469 0.46094,-0.14062 0.10937,-0.0937 0.23047,-0.31511 0.36328,-0.66406 l 0.12891,-0.32813 -1.76953,-4.304687 0.76172,0 1.36718,3.421877 1.36719,-3.421877 0.76172,0 -1.92188,4.781247"
         style="font-size:8px"
         id="path7683"
         inkscape:connector-curvature="0" />
      <path
         d="m 110.75391,103.37243 2.7539,0 0,0.66406 -3.70312,0 0,-0.66406 c 0.29948,-0.30989 0.70703,-0.72526 1.22265,-1.24609 0.51823,-0.52344 0.84375,-0.86068 0.97657,-1.01172 0.2526,-0.28385 0.42838,-0.52344 0.52734,-0.71875 0.10156,-0.19791 0.15234,-0.39192 0.15234,-0.582033 0,-0.309891 -0.10937,-0.562495 -0.32812,-0.757812 -0.21615,-0.195308 -0.4987,-0.292964 -0.84766,-0.292969 -0.2474,5e-6 -0.50911,0.04297 -0.78515,0.128906 -0.27344,0.08594 -0.56641,0.216151 -0.87891,0.390625 l 0,-0.796875 c 0.31771,-0.127598 0.61458,-0.223953 0.89063,-0.289062 0.27603,-0.0651 0.52864,-0.09765 0.75781,-0.09766 0.60416,6e-6 1.08593,0.151048 1.44531,0.453125 0.35937,0.302089 0.53906,0.705734 0.53906,1.210938 0,0.239587 -0.0456,0.467457 -0.13672,0.683597 -0.0885,0.21354 -0.2513,0.46615 -0.48828,0.75781 -0.0651,0.0755 -0.27214,0.29428 -0.62109,0.65625 -0.34896,0.35938 -0.84115,0.86328 -1.47656,1.51172"
         style="font-size:8px"
         id="path7685"
         inkscape:connector-curvature="0" />
      <path
         d="m 114.95313,97.966181 0.625,0 c 0.39062,0.614589 0.68228,1.21615 0.875,1.804687 0.19531,0.588542 0.29296,1.173182 0.29296,1.753902 0,0.58334 -0.0977,1.17058 -0.29296,1.76172 -0.19272,0.59115 -0.48438,1.19271 -0.875,1.80469 l -0.625,0 c 0.34635,-0.59635 0.60416,-1.1888 0.77343,-1.77734 0.17188,-0.59115 0.25781,-1.1875 0.25782,-1.78907 -1e-5,-0.60155 -0.0859,-1.1953 -0.25782,-1.781245 -0.16927,-0.585933 -0.42708,-1.17838 -0.77343,-1.777344"
         style="font-size:8px"
         id="path7687"
         inkscape:connector-curvature="0" />
    </g>
    <g
       transform="translate(34.201681,46.052653)"
       style="font-size:12px;font-style:normal;font-weight:normal;line-height:125%;letter-spacing:0px;word-spacing:0px;fill:#000000;fill-opacity:1;stroke:none;font-family:Sans"
       id="text3251">
      <path
         d="m 86.332886,36.007767 7.40039,0 0,0.996093 -3.105468,0 0,7.751954 -1.189454,0 0,-7.751954 -3.105468,0 0,-0.996093"
         id="path3266"
         inkscape:connector-curvature="0" />
      <path
         d="m 97.16604,44.489761 c 0.165038,0.05586 0.325001,0.1752 0.47989,0.358012 0.15742,0.182818 0.314843,0.434188 0.472272,0.754113 l 0.780773,1.553928 -0.826477,0 -0.727452,-1.458712 C 97.15715,45.316239 96.974335,45.063599 96.796601,44.939181 96.6214,44.814767 96.381456,44.75256 96.076767,44.752557 l -0.837903,0 0,2.403257 -0.769346,0 0,-5.686311 1.736743,0 c 0.650006,6e-6 1.134973,0.135847 1.454903,0.407525 0.319922,0.271689 0.479885,0.681753 0.47989,1.230194 -5e-6,0.358016 -0.08379,0.65509 -0.251371,0.891223 -0.165045,0.236139 -0.40626,0.399911 -0.723643,0.491316 m -1.927176,-2.388022 0,2.018583 0.967397,0 c 0.370705,3e-6 0.650006,-0.08506 0.837902,-0.25518 0.190429,-0.172655 0.285645,-0.425295 0.285649,-0.75792 -4e-6,-0.332618 -0.09522,-0.582719 -0.285649,-0.750304 -0.187896,-0.170115 -0.467197,-0.255174 -0.837902,-0.255179 l -0.967397,0"
         style="font-size:65.00091553%;baseline-shift:sub"
         id="path3268"
         inkscape:connector-curvature="0" />
      <path
         d="m 100.66238,44.440248 0,2.08333 1.234,0 c 0.41387,10e-7 0.71983,-0.08506 0.91788,-0.255179 0.20059,-0.172658 0.30088,-0.435454 0.30089,-0.78839 -1e-5,-0.355472 -0.1003,-0.616999 -0.30089,-0.784582 -0.19805,-0.170116 -0.50401,-0.255176 -0.91788,-0.255179 l -1.234,0 m 0,-2.338509 0,1.713891 1.13878,0 c 0.37579,3e-6 0.65509,-0.06982 0.83791,-0.209476 0.18535,-0.142185 0.27802,-0.358009 0.27803,-0.64747 -1e-5,-0.286913 -0.0927,-0.501467 -0.27803,-0.643661 -0.18282,-0.142185 -0.46212,-0.213279 -0.83791,-0.213284 l -1.13878,0 m -0.769349,-0.632236 1.965259,0 c 0.58653,6e-6 1.03849,0.121882 1.35588,0.36563 0.31738,0.243759 0.47608,0.590345 0.47608,1.039761 0,0.34786 -0.0813,0.624622 -0.24375,0.830285 -0.16251,0.20567 -0.40118,0.333895 -0.71603,0.384674 0.37832,0.08125 0.67159,0.251373 0.8798,0.510358 0.21074,0.256452 0.31611,0.577647 0.31612,0.963588 -1e-5,0.507821 -0.17266,0.900111 -0.51798,1.176872 -0.34532,0.276762 -0.83663,0.415143 -1.47394,0.415143 l -2.041439,0 0,-5.686311"
         style="font-size:65.00091553%;baseline-shift:sub"
         id="path3270"
         inkscape:connector-curvature="0" />
      <path
         d="m 107.63982,46.489853 c 0.36817,0.07872 0.65508,0.242486 0.86075,0.491315 0.20821,0.248834 0.31231,0.556065 0.31231,0.921693 0,0.561142 -0.19297,0.995327 -0.57891,1.302557 -0.38595,0.307231 -0.93439,0.460846 -1.64534,0.460847 -0.23867,-1e-6 -0.48497,-0.02412 -0.73887,-0.07237 -0.25138,-0.0457 -0.51163,-0.115529 -0.78078,-0.209475 l 0,-0.742687 c 0.21329,0.124417 0.44688,0.218364 0.70079,0.28184 0.25391,0.06348 0.51925,0.09522 0.79601,0.09522 0.48243,0 0.84933,-0.09522 1.1007,-0.285649 0.25391,-0.190431 0.38086,-0.467193 0.38087,-0.830285 -10e-6,-0.335159 -0.11808,-0.596686 -0.35421,-0.784582 -0.2336,-0.190429 -0.55987,-0.285645 -0.97882,-0.285648 l -0.66271,0 0,-0.632236 0.69318,0 c 0.37832,4e-6 0.66778,-0.0749 0.86837,-0.22471 0.20059,-0.152342 0.30088,-0.370704 0.30088,-0.655087 0,-0.291992 -0.1041,-0.515432 -0.31231,-0.670322 -0.20567,-0.157419 -0.50147,-0.236131 -0.88741,-0.236136 -0.21075,5e-6 -0.43673,0.02286 -0.67794,0.06855 -0.24122,0.04571 -0.50655,0.116804 -0.79601,0.213285 l 0,-0.685557 c 0.292,-0.08125 0.56495,-0.142184 0.81886,-0.182815 0.25645,-0.04062 0.49766,-0.06093 0.72364,-0.06094 0.58399,6e-6 1.04611,0.133308 1.38635,0.399908 0.34024,0.264071 0.51036,0.622084 0.51036,1.074038 0,0.314852 -0.0901,0.581458 -0.27041,0.799816 -0.18028,0.215827 -0.43673,0.365634 -0.76935,0.449421"
         id="path3272"
         inkscape:connector-curvature="0" />
    </g>
    <g
       transform="translate(33.827603,40.124167)"
       style="display:inline"
       id="text3132">
      <path
         d="m 179.99232,110.90671 c -0.52344,0.89844 -0.91211,1.78711 -1.16601,2.66601 -0.25391,0.87892 -0.38086,1.76954 -0.38086,2.67188 0,0.90235 0.12695,1.79688 0.38086,2.68359 0.25781,0.88281 0.64648,1.77149 1.16601,2.66602 l -0.9375,0 c -0.58593,-0.91797 -1.02539,-1.82031 -1.31835,-2.70703 -0.28907,-0.88672 -0.4336,-1.76758 -0.4336,-2.64258 0,-0.87109 0.14453,-1.74804 0.4336,-2.63086 0.28906,-0.88281 0.72851,-1.78515 1.31835,-2.70703 l 0.9375,0"
         id="path3195"
         inkscape:connector-curvature="0" />
      <path
         d="m 181.71498,111.26413 1.27149,0 2.17382,3.25195 2.18555,-3.25195 1.27148,0 -2.8125,4.20117 3,4.54688 -1.27148,0 -2.46094,-3.72071 -2.47851,3.72071 -1.27735,0 3.12305,-4.66993 -2.72461,-4.07812"
         id="path3197"
         inkscape:connector-curvature="0" />
      <path
         d="m 192.64774,119.74612 c 0.16504,0.0559 0.32501,0.1752 0.47989,0.35802 0.15742,0.18281 0.31485,0.43418 0.47228,0.75411 l 0.78077,1.55393 -0.82648,0 -0.72745,-1.45872 c -0.1879,-0.38086 -0.37071,-0.6335 -0.54844,-0.75792 -0.1752,-0.12441 -0.41515,-0.18662 -0.71984,-0.18662 l -0.8379,0 0,2.40326 -0.76935,0 0,-5.68631 1.73675,0 c 0.65,0 1.13497,0.13584 1.4549,0.40752 0.31992,0.27169 0.47988,0.68175 0.47989,1.23019 -1e-5,0.35802 -0.0838,0.6551 -0.25137,0.89123 -0.16505,0.23614 -0.40626,0.39991 -0.72365,0.49131 m -1.92717,-2.38802 0,2.01858 0.9674,0 c 0.3707,1e-5 0.65,-0.085 0.8379,-0.25517 0.19043,-0.17266 0.28564,-0.4253 0.28565,-0.75793 -1e-5,-0.33261 -0.0952,-0.58271 -0.28565,-0.7503 -0.1879,-0.17011 -0.4672,-0.25517 -0.8379,-0.25518 l -0.9674,0"
         style="font-size:65.00091553%;baseline-shift:sub"
         id="path3199"
         inkscape:connector-curvature="0" />
      <path
         d="m 195.57659,124.16471 1.25686,0 0,-4.33805 -1.36731,0.27422 0,-0.70079 1.35969,-0.27422 0.76935,0 0,5.03884 1.25685,0 0,0.64747 -3.27544,0 0,-0.64747"
         id="path3201"
         inkscape:connector-curvature="0" />
      <path
         d="m 200.98192,118.5239 1.23633,0 0,1.00781 -0.96094,1.875 -0.75585,0 0.48046,-1.875 0,-1.00781"
         id="path3203"
         inkscape:connector-curvature="0" />
      <path
         d="m 207.19286,111.26413 1.27149,0 2.42578,3.59766 2.4082,-3.59766 1.27148,0 -3.09375,4.58203 0,4.16602 -1.18945,0 0,-4.16602 -3.09375,-4.58203"
         id="path3205"
         inkscape:connector-curvature="0" />
      <path
         d="m 216.08712,119.69661 0,2.08333 1.23401,0 c 0.41386,0 0.71983,-0.0851 0.91788,-0.25518 0.20058,-0.17266 0.30088,-0.43545 0.30088,-0.78839 0,-0.35547 -0.1003,-0.617 -0.30088,-0.78458 -0.19805,-0.17012 -0.50402,-0.25518 -0.91788,-0.25518 l -1.23401,0 m 0,-2.33851 0,1.71389 1.13879,0 c 0.37578,1e-5 0.65508,-0.0698 0.8379,-0.20947 0.18535,-0.14219 0.27803,-0.35801 0.27803,-0.64747 0,-0.28692 -0.0927,-0.50147 -0.27803,-0.64366 -0.18282,-0.14219 -0.46212,-0.21328 -0.8379,-0.21329 l -1.13879,0 m -0.76934,-0.63223 1.96526,0 c 0.58653,0 1.03849,0.12188 1.35588,0.36563 0.31738,0.24375 0.47607,0.59034 0.47608,1.03976 -1e-5,0.34786 -0.0813,0.62462 -0.24376,0.83028 -0.1625,0.20567 -0.40118,0.3339 -0.71602,0.38468 0.37832,0.0812 0.67159,0.25137 0.8798,0.51035 0.21074,0.25646 0.31611,0.57765 0.31611,0.96359 0,0.50782 -0.17266,0.90011 -0.51797,1.17687 -0.34532,0.27677 -0.83664,0.41515 -1.47395,0.41515 l -2.04143,0 0,-5.68631"
         style="font-size:65.00091553%;baseline-shift:sub"
         id="path3207"
         inkscape:connector-curvature="0" />
      <path
         d="m 220.86697,124.16471 1.25686,0 0,-4.33805 -1.36731,0.27422 0,-0.70079 1.35969,-0.27422 0.76935,0 0,5.03884 1.25685,0 0,0.64747 -3.27544,0 0,-0.64747"
         id="path3209"
         inkscape:connector-curvature="0" />
      <path
         d="m 225.82699,110.90671 0.9375,0 c 0.58594,0.92188 1.02344,1.82422 1.3125,2.70703 0.29297,0.88282 0.43945,1.75977 0.43946,2.63086 -1e-5,0.875 -0.14649,1.75586 -0.43946,2.64258 -0.28906,0.88672 -0.72656,1.78906 -1.3125,2.70703 l -0.9375,0 c 0.51953,-0.89453 0.90625,-1.78321 1.16016,-2.66602 0.25781,-0.88671 0.38671,-1.78124 0.38672,-2.68359 -1e-5,-0.90234 -0.12891,-1.79296 -0.38672,-2.67188 -0.25391,-0.8789 -0.64063,-1.76757 -1.16016,-2.66601"
         id="path3211"
         inkscape:connector-curvature="0" />
    </g>
  </g>
</svg>
